<svg width="536" height="57" viewBox="0 0 536 57" fill="none" xmlns="http://www.w3.org/2000/svg">
<g filter="url(#filter0_n_1_142)">
<path d="M-2.86102e-06 45.4401V12.5441H12.224V15.6801C14.9547 13.0774 18.9653 11.7761 24.256 11.7761C26.0053 11.7761 27.7973 11.9681 29.632 12.3521C31.4667 12.7361 33.152 13.4187 34.688 14.4001C36.224 15.3387 37.4613 16.6614 38.4 18.3681C39.3813 20.0321 39.872 22.1441 39.872 24.7041V45.4401H27.456V25.9841C27.456 24.0214 26.7733 22.6134 25.408 21.7601C24.0427 20.8641 22.2293 20.4161 19.968 20.4161C17.7067 20.4161 15.8933 20.8641 14.528 21.7601C13.1627 22.6134 12.4587 24.0214 12.416 25.9841V45.4401H-2.86102e-06ZM67.1155 46.2081C64.1715 46.2081 61.3555 45.8454 58.6675 45.1201C55.9795 44.3521 53.5688 43.2427 51.4355 41.7921C49.3448 40.3414 47.6808 38.5494 46.4435 36.4161C45.2488 34.2827 44.6515 31.8081 44.6515 28.9921C44.6515 25.2374 45.6328 22.0801 47.5955 19.5201C49.6008 16.9601 52.3102 15.0401 55.7235 13.7601C59.1368 12.4374 62.9342 11.7761 67.1155 11.7761C71.2968 11.7761 75.0728 12.4374 78.4435 13.7601C81.8568 15.0401 84.5448 16.9601 86.5075 19.5201C88.5128 22.0801 89.5155 25.2374 89.5155 28.9921C89.5155 31.8081 88.8968 34.2827 87.6595 36.4161C86.4648 38.5494 84.8008 40.3414 82.6675 41.7921C80.5768 43.2427 78.1875 44.3521 75.4995 45.1201C72.8115 45.8454 70.0168 46.2081 67.1155 46.2081ZM67.1155 37.7601C70.1022 37.7601 72.4915 36.9921 74.2835 35.4561C76.1182 33.8774 77.0355 31.8294 77.0355 29.3121V28.6721C77.0355 26.1121 76.1182 24.0641 74.2835 22.5281C72.4915 20.9921 70.1022 20.2241 67.1155 20.2241C64.1288 20.2241 61.7182 20.9921 59.8835 22.5281C58.0488 24.0641 57.1315 26.1121 57.1315 28.6721V29.3121C57.1315 31.8294 58.0488 33.8774 59.8835 35.4561C61.7182 36.9921 64.1288 37.7601 67.1155 37.7601ZM112.801 46.2081C110.625 46.2081 108.385 45.8881 106.081 45.2481C103.777 44.6081 101.644 43.6054 99.681 42.2401C97.761 40.8321 96.1823 39.0401 94.945 36.8641C93.7503 34.6881 93.153 32.0641 93.153 28.9921C93.153 25.9201 93.729 23.2961 94.881 21.1201C96.0757 18.9014 97.633 17.1094 99.553 15.7441C101.473 14.3787 103.585 13.3761 105.889 12.7361C108.236 12.0961 110.54 11.7761 112.801 11.7761C115.19 11.7761 117.494 12.1174 119.713 12.8001C121.974 13.4827 123.916 14.4641 125.537 15.7441V6.10352e-05H137.953V45.4401H125.729V42.3041C124.022 43.7121 122.038 44.7147 119.777 45.3121C117.558 45.9094 115.233 46.2081 112.801 46.2081ZM105.633 29.3121C105.633 31.1041 106.081 32.6401 106.977 33.9201C107.873 35.1574 109.068 36.1174 110.561 36.8001C112.054 37.4401 113.697 37.7601 115.489 37.7601C117.11 37.7601 118.689 37.4827 120.225 36.9281C121.761 36.3734 123.02 35.4987 124.001 34.3041C125.025 33.0667 125.537 31.4667 125.537 29.5041V28.4801C125.537 26.4747 125.025 24.8747 124.001 23.6801C123.02 22.4427 121.761 21.5681 120.225 21.0561C118.689 20.5014 117.11 20.2241 115.489 20.2241C112.758 20.2241 110.433 20.9494 108.513 22.4001C106.593 23.8507 105.633 25.9414 105.633 28.6721V29.3121ZM162.929 46.2081C157.98 46.2081 153.67 45.5467 150.001 44.2241C146.374 42.9014 143.878 40.8534 142.513 38.0801L152.817 34.3681C153.158 34.9227 153.628 35.5201 154.225 36.1601C154.865 36.7574 155.868 37.2694 157.233 37.6961C158.598 38.1227 160.582 38.3361 163.185 38.3361C165.958 38.3361 168.177 38.1654 169.841 37.8241C171.548 37.4827 172.401 36.8641 172.401 35.9681C172.401 35.4134 172.145 34.9867 171.633 34.6881C171.164 34.3467 170.374 34.1121 169.265 33.9841L156.273 32.3841C153.926 32.0854 151.793 31.5947 149.873 30.9121C147.996 30.2294 146.502 29.2481 145.393 27.9681C144.326 26.6881 143.793 25.0027 143.793 22.9121C143.793 20.2667 144.604 18.1334 146.225 16.5121C147.889 14.8481 150.172 13.6534 153.073 12.9281C156.017 12.1601 159.366 11.7761 163.121 11.7761C168.07 11.7761 172.23 12.4374 175.601 13.7601C178.972 15.0827 181.425 17.2161 182.961 20.1601L172.977 22.9761C172.337 21.9947 171.313 21.2054 169.905 20.6081C168.54 19.9681 166.278 19.6481 163.121 19.6481C160.39 19.6481 158.342 19.8614 156.977 20.2881C155.612 20.6721 154.929 21.2054 154.929 21.8881C154.929 22.3147 155.164 22.6987 155.633 23.0401C156.102 23.3814 157.19 23.6587 158.897 23.8721L170.929 25.4081C173.532 25.7067 175.772 26.1761 177.649 26.8161C179.526 27.4561 180.977 28.3947 182.001 29.6321C183.025 30.8694 183.537 32.5761 183.537 34.7521C183.537 37.4401 182.641 39.6374 180.849 41.3441C179.057 43.0081 176.604 44.2454 173.489 45.0561C170.417 45.8241 166.897 46.2081 162.929 46.2081ZM202.75 45.4401V12.5441H214.974V15.9361C216.254 14.6134 217.833 13.5894 219.71 12.8641C221.587 12.1387 223.763 11.7761 226.238 11.7761C227.39 11.7761 228.67 11.9041 230.078 12.1601C231.529 12.3734 232.937 12.8001 234.302 13.4401C235.71 14.0374 236.926 14.9121 237.95 16.0641C239.401 14.6561 241.086 13.5894 243.006 12.8641C244.926 12.1387 247.166 11.7761 249.726 11.7761C251.433 11.7761 253.161 11.9681 254.91 12.3521C256.702 12.7361 258.345 13.4187 259.838 14.4001C261.331 15.3387 262.526 16.6614 263.422 18.3681C264.361 20.0321 264.83 22.1441 264.83 24.7041V45.4401H252.414V25.6641C252.414 23.7867 251.817 22.4427 250.622 21.6321C249.47 20.8214 247.998 20.4161 246.206 20.4161C244.457 20.4161 242.985 20.8214 241.79 21.6321C240.595 22.4427 239.998 23.7867 239.998 25.6641V45.4401H227.582V25.6641C227.582 23.7867 226.985 22.4427 225.79 21.6321C224.638 20.8214 223.166 20.4161 221.374 20.4161C219.625 20.4161 218.153 20.8214 216.958 21.6321C215.806 22.4427 215.209 23.7867 215.166 25.6641V45.4401H202.75ZM284.755 46.0801C280.275 46.0801 276.649 45.2267 273.875 43.5201C271.102 41.7707 269.715 39.2747 269.715 36.0321C269.715 33.3867 270.739 31.1681 272.787 29.3761C274.835 27.5414 278.249 26.3894 283.027 25.9201L296.787 24.5761V24.2561C296.787 21.2694 294.505 19.7761 289.939 19.7761C287.849 19.7761 286.206 20.0961 285.011 20.7361C283.859 21.3334 283.07 22.3147 282.643 23.6801L270.163 22.7841C270.675 20.8214 271.678 19.0081 273.171 17.3441C274.665 15.6801 276.798 14.3361 279.571 13.3121C282.345 12.2881 285.865 11.7761 290.131 11.7761C296.318 11.7761 301.033 12.8641 304.275 15.0401C307.561 17.2161 309.203 20.3947 309.203 24.5761V35.5201C309.203 37.0987 309.203 38.4214 309.203 39.4881C309.246 40.5547 309.289 41.5574 309.331 42.4961C309.417 43.3921 309.523 44.3734 309.652 45.4401H297.811L297.555 42.6241C296.062 43.8614 294.206 44.7574 291.987 45.3121C289.769 45.8241 287.358 46.0801 284.755 46.0801ZM282.323 35.7761C282.323 36.6294 282.707 37.3334 283.475 37.8881C284.286 38.4001 285.609 38.6561 287.443 38.6561C288.979 38.6561 290.451 38.5067 291.859 38.2081C293.31 37.9094 294.483 37.3974 295.379 36.6721C296.318 35.9467 296.787 34.9654 296.787 33.7281V31.4881L286.163 32.8321C284.969 33.0027 284.03 33.3014 283.347 33.7281C282.665 34.1547 282.323 34.8374 282.323 35.7761ZM333.866 46.2081C328.917 46.2081 324.608 45.5467 320.938 44.2241C317.312 42.9014 314.816 40.8534 313.45 38.0801L323.754 34.3681C324.096 34.9227 324.565 35.5201 325.162 36.1601C325.802 36.7574 326.805 37.2694 328.17 37.6961C329.536 38.1227 331.52 38.3361 334.122 38.3361C336.896 38.3361 339.114 38.1654 340.778 37.8241C342.485 37.4827 343.338 36.8641 343.338 35.9681C343.338 35.4134 343.082 34.9867 342.57 34.6881C342.101 34.3467 341.312 34.1121 340.202 33.9841L327.21 32.3841C324.864 32.0854 322.73 31.5947 320.81 30.9121C318.933 30.2294 317.44 29.2481 316.33 27.9681C315.264 26.6881 314.73 25.0027 314.73 22.9121C314.73 20.2667 315.541 18.1334 317.162 16.5121C318.826 14.8481 321.109 13.6534 324.01 12.9281C326.954 12.1601 330.304 11.7761 334.058 11.7761C339.008 11.7761 343.168 12.4374 346.538 13.7601C349.909 15.0827 352.362 17.2161 353.898 20.1601L343.914 22.9761C343.274 21.9947 342.25 21.2054 340.842 20.6081C339.477 19.9681 337.216 19.6481 334.058 19.6481C331.328 19.6481 329.28 19.8614 327.914 20.2881C326.549 20.6721 325.866 21.2054 325.866 21.8881C325.866 22.3147 326.101 22.6987 326.57 23.0401C327.04 23.3814 328.128 23.6587 329.834 23.8721L341.866 25.4081C344.469 25.7067 346.709 26.1761 348.586 26.8161C350.464 27.4561 351.914 28.3947 352.938 29.6321C353.962 30.8694 354.474 32.5761 354.474 34.7521C354.474 37.4401 353.578 39.6374 351.786 41.3441C349.994 43.0081 347.541 44.2454 344.426 45.0561C341.354 45.8241 337.834 46.2081 333.866 46.2081ZM377.804 46.2081C372.855 46.2081 368.545 45.5467 364.876 44.2241C361.249 42.9014 358.753 40.8534 357.388 38.0801L367.692 34.3681C368.033 34.9227 368.503 35.5201 369.1 36.1601C369.74 36.7574 370.743 37.2694 372.108 37.6961C373.473 38.1227 375.457 38.3361 378.06 38.3361C380.833 38.3361 383.052 38.1654 384.716 37.8241C386.423 37.4827 387.276 36.8641 387.276 35.9681C387.276 35.4134 387.02 34.9867 386.508 34.6881C386.039 34.3467 385.249 34.1121 384.14 33.9841L371.148 32.3841C368.801 32.0854 366.668 31.5947 364.748 30.9121C362.871 30.2294 361.377 29.2481 360.268 27.9681C359.201 26.6881 358.668 25.0027 358.668 22.9121C358.668 20.2667 359.479 18.1334 361.1 16.5121C362.764 14.8481 365.047 13.6534 367.948 12.9281C370.892 12.1601 374.241 11.7761 377.996 11.7761C382.945 11.7761 387.105 12.4374 390.476 13.7601C393.847 15.0827 396.3 17.2161 397.836 20.1601L387.852 22.9761C387.212 21.9947 386.188 21.2054 384.78 20.6081C383.415 19.9681 381.153 19.6481 377.996 19.6481C375.265 19.6481 373.217 19.8614 371.852 20.2881C370.487 20.6721 369.804 21.2054 369.804 21.8881C369.804 22.3147 370.039 22.6987 370.508 23.0401C370.977 23.3814 372.065 23.6587 373.772 23.8721L385.804 25.4081C388.407 25.7067 390.647 26.1761 392.524 26.8161C394.401 27.4561 395.852 28.3947 396.876 29.6321C397.9 30.8694 398.412 32.5761 398.412 34.7521C398.412 37.4401 397.516 39.6374 395.724 41.3441C393.932 43.0081 391.479 44.2454 388.364 45.0561C385.292 45.8241 381.772 46.2081 377.804 46.2081ZM417.005 46.0801C412.525 46.0801 408.899 45.2267 406.125 43.5201C403.352 41.7707 401.965 39.2747 401.965 36.0321C401.965 33.3867 402.989 31.1681 405.037 29.3761C407.085 27.5414 410.499 26.3894 415.277 25.9201L429.037 24.5761V24.2561C429.037 21.2694 426.755 19.7761 422.189 19.7761C420.099 19.7761 418.456 20.0961 417.261 20.7361C416.109 21.3334 415.32 22.3147 414.893 23.6801L402.413 22.7841C402.925 20.8214 403.928 19.0081 405.421 17.3441C406.915 15.6801 409.048 14.3361 411.821 13.3121C414.595 12.2881 418.115 11.7761 422.381 11.7761C428.568 11.7761 433.283 12.8641 436.525 15.0401C439.811 17.2161 441.453 20.3947 441.453 24.5761V35.5201C441.453 37.0987 441.453 38.4214 441.453 39.4881C441.496 40.5547 441.539 41.5574 441.581 42.4961C441.667 43.3921 441.773 44.3734 441.902 45.4401H430.061L429.805 42.6241C428.312 43.8614 426.456 44.7574 424.237 45.3121C422.019 45.8241 419.608 46.0801 417.005 46.0801ZM414.573 35.7761C414.573 36.6294 414.957 37.3334 415.725 37.8881C416.536 38.4001 417.859 38.6561 419.693 38.6561C421.229 38.6561 422.701 38.5067 424.109 38.2081C425.56 37.9094 426.733 37.3974 427.629 36.6721C428.568 35.9467 429.037 34.9654 429.037 33.7281V31.4881L418.413 32.8321C417.219 33.0027 416.28 33.3014 415.597 33.7281C414.915 34.1547 414.573 34.8374 414.573 35.7761ZM466.308 56.7681C462.042 56.7681 458.5 56.5761 455.684 56.1921C452.911 55.8081 450.714 55.2534 449.092 54.5281C447.514 53.8027 446.404 52.9707 445.764 52.0321C445.124 51.0934 444.804 50.0907 444.804 49.0241C444.804 46.4214 446.618 44.2881 450.244 42.6241C448.922 41.3867 448.26 39.8934 448.26 38.1441C448.26 36.9067 448.644 35.6694 449.412 34.4321C450.223 33.1947 451.396 32.1281 452.932 31.2321C448.708 29.1841 446.596 26.3681 446.596 22.7841C446.596 20.7361 447.343 18.8801 448.836 17.2161C450.372 15.5521 452.591 14.2294 455.492 13.2481C458.436 12.2241 462.02 11.7121 466.244 11.7121C468.122 11.7121 469.871 11.8187 471.492 12.0321C473.114 12.2454 474.586 12.5441 475.908 12.9281C477.274 11.1361 478.831 9.85606 480.58 9.08806C482.33 8.32006 484.25 7.93606 486.34 7.93606C487.279 7.93606 488.218 8.00006 489.156 8.12806V15.6161C488.004 15.4881 486.852 15.4667 485.701 15.5521C484.591 15.5947 483.503 15.8081 482.437 16.1921C484.655 18.0267 485.764 20.2241 485.764 22.7841C485.764 24.8321 484.996 26.7094 483.46 28.4161C481.924 30.0801 479.706 31.4027 476.804 32.3841C473.903 33.3654 470.383 33.8561 466.244 33.8561C463.727 33.8561 461.359 33.6641 459.14 33.2801C458.671 33.7921 458.436 34.3041 458.436 34.8161C458.436 35.2427 458.65 35.6054 459.076 35.9041C459.503 36.2027 460.25 36.3734 461.316 36.4161L476.612 36.8641C481.093 36.9921 484.378 37.8027 486.468 39.2961C488.602 40.7894 489.668 42.8374 489.668 45.4401C489.668 48.9387 487.663 51.6907 483.653 53.6961C479.642 55.7441 473.86 56.7681 466.308 56.7681ZM466.244 26.9441C468.847 26.9441 470.746 26.5601 471.94 25.7921C473.135 25.0241 473.732 24.0214 473.732 22.7841C473.732 21.5467 473.135 20.5654 471.94 19.8401C470.746 19.1147 468.847 18.7521 466.244 18.7521C463.642 18.7521 461.722 19.1147 460.484 19.8401C459.29 20.5227 458.692 21.5041 458.692 22.7841C458.692 24.0641 459.29 25.0881 460.484 25.8561C461.722 26.5814 463.642 26.9441 466.244 26.9441ZM466.628 50.1121C469.914 50.1547 472.559 49.9414 474.564 49.4721C476.57 49.0027 477.572 48.2987 477.572 47.3601C477.572 46.1654 476.015 45.5467 472.9 45.5041L458.052 45.0561C457.028 45.6961 456.516 46.4001 456.516 47.1681C456.516 48.2774 457.412 49.0241 459.204 49.4081C460.996 49.8347 463.471 50.0694 466.628 50.1121ZM514.126 46.2081C509.731 46.2081 505.806 45.5467 502.35 44.2241C498.894 42.9014 496.163 40.9601 494.158 38.4001C492.195 35.8401 491.214 32.7041 491.214 28.9921C491.214 25.2374 492.153 22.0801 494.03 19.5201C495.907 16.9601 498.531 15.0401 501.902 13.7601C505.315 12.4374 509.262 11.7761 513.742 11.7761C518.478 11.7761 522.489 12.5227 525.774 14.0161C529.059 15.4667 531.491 17.6641 533.07 20.6081C534.691 23.5094 535.289 27.1147 534.862 31.4241H503.694C503.907 33.2161 504.846 34.7307 506.51 35.9681C508.217 37.2054 510.755 37.8241 514.126 37.8241C517.113 37.8241 519.246 37.4827 520.526 36.8001C521.849 36.1174 522.809 35.2214 523.406 34.1121L534.734 35.3281C533.795 38.8694 531.47 41.5787 527.758 43.4561C524.046 45.2907 519.502 46.2081 514.126 46.2081ZM513.87 19.5201C510.67 19.5201 508.259 20.0747 506.638 21.1841C505.059 22.2507 504.099 23.5521 503.758 25.0881H523.534C523.278 23.2961 522.339 21.9307 520.718 20.9921C519.139 20.0107 516.857 19.5201 513.87 19.5201Z" fill="white"/>
</g>
<defs>
<filter id="filter0_n_1_142" x="0" y="0" width="535.502" height="56.7681" filterUnits="userSpaceOnUse" color-interpolation-filters="sRGB">
<feFlood flood-opacity="0" result="BackgroundImageFix"/>
<feBlend mode="normal" in="SourceGraphic" in2="BackgroundImageFix" result="shape"/>
<feTurbulence type="fractalNoise" baseFrequency="2 2" stitchTiles="stitch" numOctaves="3" result="noise" seed="7944" />
<feColorMatrix in="noise" type="luminanceToAlpha" result="alphaNoise" />
<feComponentTransfer in="alphaNoise" result="coloredNoise1">
<feFuncA type="discrete" tableValues="1 1 1 1 1 1 1 1 1 1 1 1 1 1 1 1 1 1 1 1 1 1 1 1 1 1 1 1 1 1 1 1 1 1 1 1 1 1 1 1 1 1 1 1 1 1 1 1 1 1 1 0 0 0 0 0 0 0 0 0 0 0 0 0 0 0 0 0 0 0 0 0 0 0 0 0 0 0 0 0 0 0 0 0 0 0 0 0 0 0 0 0 0 0 0 0 0 0 0 0 "/>
</feComponentTransfer>
<feComposite operator="in" in2="shape" in="coloredNoise1" result="noise1Clipped" />
<feFlood flood-color="rgba(0, 0, 0, 0.25)" result="color1Flood" />
<feComposite operator="in" in2="noise1Clipped" in="color1Flood" result="color1" />
<feMerge result="effect1_noise_1_142">
<feMergeNode in="shape" />
<feMergeNode in="color1" />
</feMerge>
</filter>
</defs>
</svg>
